<?xml version="1.0" encoding="UTF-8"?>
<svg width="136px" height="44px" viewBox="0 0 136 44" version="1.1" xmlns="http://www.w3.org/2000/svg" xmlns:xlink="http://www.w3.org/1999/xlink">
    <!-- Generator: Sketch 59 (86127) - https://sketch.com -->
    <title>Artboard</title>
    <desc>Created with Sketch.</desc>
    <g id="Artboard" stroke="none" stroke-width="1" fill="none" fill-rule="evenodd">
        <g id="Group-3" transform="translate(9.000000, 2.000000)" fill="#FFFFFF">
            <g id="BAC-Credomatic-Logo" transform="translate(52.000000, 1.000000)">
                <path d="M11.7559606,22.7803595 L6.35629763,22.7803595 L6.35629763,16.1414654 L11.6111437,16.1414654 C14.2562326,16.1414654 15.2712593,17.0836475 15.2712593,19.3666943 C15.2712593,21.939811 14.1838242,22.7803595 11.7559606,22.7803595 L11.7559606,22.7803595 Z M6.35673382,5.6609984 L11.3210737,5.6609984 C13.6041205,5.6609984 14.5825068,6.46577893 14.5825068,8.60357262 C14.5825068,10.7418025 13.6403247,11.6115761 11.4658906,11.6115761 L6.35673382,11.6115761 L6.35673382,5.6609984 Z M16.7931451,13.4235319 L16.7931451,13.3511234 C18.9675792,12.4451456 20.4170566,10.5603452 20.4170566,7.51657366 C20.4170566,3.20390968 17.4456935,0.51520119 11.5382991,0.51520119 L0.485543647,0.51520119 L0.485543647,27.7813399 L11.6835521,27.7813399 C18.5326924,27.7813399 21.3958791,24.730153 21.3958791,19.8377853 C21.3958791,16.394895 19.8011486,14.2571013 16.7931451,13.4235319 L16.7931451,13.4235319 Z" id="Fill-1"></path>
                <path d="M30.9140554,17.3372951 L33.631989,8.02365082 L34.39315,5.16090037 L34.5021988,5.16090037 L35.2267194,8.02365082 L37.8360403,17.3372951 L30.9140554,17.3372951 Z M38.1256741,0.515419287 L30.841647,0.515419287 L21.4228796,27.7811218 L27.8737734,27.7811218 L29.4283739,22.4473243 L39.2855177,22.4473243 L40.8401181,27.7811218 L47.6530541,27.7811218 L38.1256741,0.515419287 Z" id="Fill-3"></path>
                <path d="M59.9589553,22.7224328 C54.9941792,22.7224328 53.2293326,20.8162589 53.2293326,14.0033228 C53.2293326,7.55286512 54.9217708,5.55945211 59.8503427,5.55945211 C61.8795237,5.55945211 64.2877586,5.9214943 65.7010317,6.46542997 L65.7010317,1.2110201 C64.1429417,0.594675993 61.6622984,0.0873807347 59.4878643,0.0873807347 C50.7901279,0.0873807347 46.8150791,4.90690378 46.8150791,13.9671186 C46.8150791,23.6790093 50.8629725,28.245539 59.0896179,28.245539 C61.4808411,28.245539 64.090162,27.6291949 65.8659135,26.7594213 L65.8659135,21.4871274 C64.3440278,22.1392395 61.9523683,22.7224328 59.9589553,22.7224328" id="Fill-5"></path>
                <path d="M62.4523791,33.8445869 C62.4523791,32.1019862 62.9095119,31.5637211 64.2407803,31.5637211 C64.7890779,31.5637211 65.4398815,31.6614289 65.8215525,31.8079905 L65.8215525,30.3886107 C65.4006239,30.221984 64.7306277,30.0854549 64.1430725,30.0854549 C61.7932879,30.0854549 60.7193748,31.387062 60.7193748,33.8349906 C60.7193748,36.4582698 61.8129167,37.6918304 64.0353323,37.6918304 C64.6813377,37.6918304 65.3862294,37.5252037 65.8660444,37.2900944 L65.8660444,35.8663526 C65.4547121,36.0421393 64.8087067,36.1996059 64.2700054,36.1996059 C62.9291407,36.1996059 62.4523791,35.6848953 62.4523791,33.8445869" id="Fill-7"></path>
                <path d="M1.98117046,33.8445869 C1.98117046,32.1019862 2.43830324,31.5637211 3.77000782,31.5637211 C4.31786925,31.5637211 4.9686728,31.6614289 5.35034378,31.8079905 L5.35034378,30.3886107 C4.92941521,30.221984 4.25941907,30.0854549 3.67186385,30.0854549 C1.3220792,30.0854549 0.248166107,31.387062 0.248166107,33.8349906 C0.248166107,36.4582698 1.34170799,37.6918304 3.56412359,37.6918304 C4.21012899,37.6918304 4.91502076,37.5252037 5.39483571,37.2900944 L5.39483571,35.8663526 C4.98350344,36.0421393 4.33749804,36.1996059 3.79879672,36.1996059 C2.45793204,36.1996059 1.98117046,35.6848953 1.98117046,33.8445869" id="Fill-9"></path>
                <path d="M9.59670606,33.5800344 L8.57862598,33.5800344 L8.57862598,31.5831318 L9.62593116,31.5831318 C10.3504517,31.5831318 10.6243824,31.8178049 10.6243824,32.5619543 C10.6243824,33.3545213 10.3308229,33.5800344 9.59670606,33.5800344 L9.59670606,33.5800344 Z M11.1142299,34.4903742 C11.9067969,34.2456686 12.3473543,33.521148 12.3473543,32.4934716 C12.3473543,30.9270939 11.4370145,30.2121696 9.61633486,30.2121696 L6.92413681,30.2121696 L6.92413681,37.5546469 L8.57862598,37.5546469 L8.57862598,34.813595 L9.61633486,34.813595 L10.8987494,37.5546469 L12.8271692,37.5546469 L11.1142299,34.4903742 Z" id="Fill-11"></path>
                <polygon id="Fill-13" points="15.6429851 34.441782 18.3548119 34.441782 18.3548119 33.1297062 15.6429851 33.1297062 15.6429851 31.6710688 18.863852 31.6710688 18.8346269 30.2124313 13.9884959 30.2124313 13.9884959 37.5549086 18.9811885 37.5549086 19.0204461 36.1159 15.6429851 36.1159"></polygon>
                <path d="M23.1419693,36.0864568 L22.0554065,36.0864568 L22.0554065,31.6904795 L23.132373,31.6904795 C24.2970147,31.6904795 24.7179433,32.1013756 24.7179433,33.8444124 C24.7179433,35.7239784 24.2677896,36.0864568 23.1419693,36.0864568 M23.1520018,30.2122133 L20.4004811,30.2122133 L20.4004811,37.5546905 L23.1711944,37.5546905 C25.3447561,37.5546905 26.4509476,36.5073854 26.4509476,33.8544449 C26.4509476,31.3184048 25.4817214,30.2122133 23.1520018,30.2122133" id="Fill-15"></path>
                <path d="M30.7554111,36.2133897 C29.6396233,36.2133897 29.2378873,35.7436072 29.2378873,33.8832338 C29.2378873,32.0237328 29.6295908,31.5731429 30.7458148,31.5731429 C31.871199,31.5731429 32.2533062,32.0237328 32.2533062,33.8832338 C32.2533062,35.7335747 31.8616027,36.2133897 30.7554111,36.2133897 M30.7458148,30.0948767 C28.4549166,30.0948767 27.5053192,31.2695509 27.5053192,33.8832338 C27.5053192,36.4973529 28.4841417,37.6920921 30.7458148,37.6920921 C33.0463094,37.6920921 33.976278,36.5462068 33.976278,33.8832338 C33.976278,31.2695509 33.0463094,30.0948767 30.7458148,30.0948767" id="Fill-17"></path>
                <polygon id="Fill-20" points="39.2980365 34.5005812 39.0241057 35.234698 38.9944445 35.234698 38.7200775 34.5005812 37.0167345 30.2123441 35.1960549 30.2123441 35.1960549 37.5548214 36.6546923 37.5548214 36.6546923 33.8249145 36.6446598 33.0319112 36.6647248 33.0218787 36.9386555 33.7660281 38.4365505 37.5548214 39.5331458 37.5548214 41.0406371 33.7564318 41.3145678 33.0122824 41.3437929 33.0218787 41.3246003 33.8153182 41.3246003 37.5548214 42.8320916 37.5548214 42.8320916 30.2123441 41.0109758 30.2123441"></polygon>
                <path d="M46.4126453,34.7450687 L47.1467621,32.2290936 L47.3522102,31.4557191 L47.3818715,31.4557191 L47.5777232,32.2290936 L48.2821788,34.7450687 L46.4126453,34.7450687 Z M48.3606939,30.212126 L46.3930165,30.212126 L43.8574126,37.5546033 L45.6000132,37.5546033 L46.0109093,36.1251909 L48.6738822,36.1251909 L49.0847783,37.5546033 L50.9255229,37.5546033 L48.3606939,30.212126 Z" id="Fill-22"></path>
                <polygon id="Fill-24" points="50.7439348 30.2123005 50.7051134 31.7005992 52.6723547 31.7005992 52.6723547 37.5547778 54.3368764 37.5547778 54.3368764 31.7005992 56.3145863 31.7005992 56.2753287 30.2123005"></polygon>
                <polygon id="Fill-26" points="57.5818212 37.5547778 59.2655355 37.5547778 59.2655355 35.3410861 59.2655355 30.2123005 57.5818212 30.2123005"></polygon>
            </g>
            <g id="Group-2">
                <polygon id="Fill-28" points="30.0277778 7.3 46 19.3130525 41.7405186 29.2 30.0277778 29.2"></polygon>
                <polygon id="Fill-30" points="28.1111111 0 0 7.04308914 0 18.8583333 28.1111111 7.59496796"></polygon>
                <polygon id="Fill-32" points="28.1111111 9.73333333 0 20.9943352 0 34.0666667 28.1111111 18.088923"></polygon>
                <polygon id="Fill-34" points="20.4444444 38.9333333 38.3333333 38.9333333 38.3333333 31.025 29.1578481 31.025"></polygon>
                <polygon id="Fill-36" points="28.1111111 20.6833333 0 36.2457868 0 38.9333333 17.3775142 38.9333333 28.1111111 29.5602083"></polygon>
            </g>
        </g>
    </g>
</svg>