<svg width="175" height="34" viewBox="0 0 175 34" fill="none" xmlns="http://www.w3.org/2000/svg">
<g clip-path="url(#clip0)">
<path d="M56.3799 12.8336V12.7731C58.1583 12.0319 59.3418 10.4921 59.3418 8.0011C59.3418 4.47934 56.9144 2.27466 52.0883 2.27466H43.0564V24.5441H52.206C57.802 24.5441 60.1403 22.0531 60.1403 18.0542C60.1275 15.2705 58.855 13.5144 56.3799 12.8336ZM47.8539 6.48995H51.9101C53.7744 6.48995 54.5729 7.14849 54.5729 8.89506C54.5729 10.6416 53.803 11.3511 52.0278 11.3511H47.8539V6.48995ZM52.2632 20.4879H47.8539V15.0542H52.1455C54.3089 15.0542 55.136 15.8241 55.136 17.6883C55.136 19.7912 54.2484 20.4784 52.2632 20.4784V20.4879Z" fill="white"/>
<path d="M73.8074 2.28424H67.8582L60.1625 24.5537H65.434L66.7066 20.1953H74.7618L76.0343 24.5537H81.6017L73.8074 2.28424ZM67.9187 16.0309L70.1456 8.42108L70.7819 6.0796H70.871L71.4627 8.42108L73.5942 16.0309H67.9187Z" fill="white"/>
<path d="M91.6517 20.4306C87.5955 20.4306 86.1511 18.8718 86.1511 13.3076C86.1511 8.03608 87.535 6.40723 91.5594 6.40723C93.2169 6.40723 95.1862 6.70309 96.3315 7.14848V2.8632C94.6994 2.2695 92.978 1.95857 91.2413 1.94379C84.1341 1.94379 80.886 5.8823 80.886 13.2853C80.886 21.2387 84.1946 24.9513 90.9136 24.9513C92.8249 24.944 94.7127 24.5308 96.4524 23.7393V19.4222C94.9263 20.046 93.2998 20.3877 91.6517 20.4306Z" fill="white"/>
<path d="M93.6877 29.5167C93.6877 28.0946 94.0631 27.6556 95.1512 27.6556C95.5883 27.6531 96.0232 27.7197 96.4396 27.8528V26.6948C96.0001 26.5342 95.5363 26.4503 95.0684 26.4467C93.1596 26.4467 92.272 27.5092 92.272 29.5103C92.272 31.6545 93.166 32.663 94.9825 32.663C95.498 32.6651 96.0079 32.5566 96.4778 32.3449V31.1773C96.0629 31.3456 95.621 31.4372 95.1734 31.4477C94.079 31.4414 93.6877 31.0214 93.6877 29.5167Z" fill="white"/>
<path d="M44.2781 29.5167C44.2781 28.0946 44.6504 27.6556 45.7384 27.6556C46.1766 27.6529 46.6125 27.7195 47.03 27.8528V26.6948C46.5905 26.5342 46.1267 26.4503 45.6588 26.4467C43.75 26.4467 42.8624 27.5092 42.8624 29.5103C42.8624 31.6545 43.7564 32.663 45.5729 32.663C46.0883 32.6648 46.5982 32.5563 47.0682 32.3449V31.1773C46.6533 31.3456 46.2114 31.4372 45.7638 31.4477C44.6663 31.4414 44.2781 31.0214 44.2781 29.5167Z" fill="white"/>
<path d="M51.7416 30.0447C52.3778 29.8443 52.7469 29.2525 52.7469 28.4127C52.7469 27.1401 52.0056 26.5516 50.5199 26.5516H48.3184V32.5484H49.6705V30.3215H50.5199L51.5666 32.5484H53.1573L51.7416 30.0447ZM50.5008 29.3034H49.6673V27.6778H50.5231C51.118 27.6778 51.3407 27.8687 51.3407 28.4763C51.3407 29.0839 51.0989 29.3034 50.5008 29.3034Z" fill="white"/>
<path d="M55.4415 30.0065H57.6557V28.9344H55.4415V27.7414H58.0725L58.0502 26.5516H54.0894V32.5484H58.1679L58.1997 31.3745H55.4415V30.0065Z" fill="white"/>
<path d="M61.5751 26.5516H59.3291V32.5484H61.591C63.3694 32.5484 64.2729 31.6926 64.2729 29.5261C64.2634 27.4551 63.4808 26.5516 61.5751 26.5516ZM61.5751 31.3491H60.6875V27.7573H61.5656C62.52 27.7573 62.8636 28.0945 62.8636 29.5166C62.8572 31.0532 62.4882 31.3491 61.5688 31.3491H61.5751Z" fill="white"/>
<path d="M67.782 26.4529C65.9081 26.4529 65.1351 27.4073 65.1351 29.5484C65.1351 31.6895 65.9336 32.6629 67.782 32.6629C69.6303 32.6629 70.4225 31.7085 70.4225 29.5484C70.4225 27.3883 69.6717 26.4529 67.782 26.4529ZM67.782 31.454C66.8721 31.454 66.5444 31.0691 66.5444 29.5452C66.5444 28.0214 66.8625 27.6587 67.7756 27.6587C68.6886 27.6587 69.0068 28.0277 69.0068 29.5452C69.0068 31.0627 68.6918 31.454 67.7883 31.454H67.782Z" fill="white"/>
<path d="M74.7682 30.0542L74.5455 30.6555H74.52L74.2973 30.0542L72.9039 26.5516H71.4182V32.5484H72.608V29.5007L72.6017 28.8549L72.6176 28.8453L72.8403 29.453L74.0651 32.5484H74.9622L76.1934 29.4466L76.4161 28.839L76.4416 28.8453L76.4257 29.4943V32.5484H77.6569V26.5516H76.168L74.7682 30.0542Z" fill="white"/>
<path d="M82.1744 26.5516H80.5678L78.4936 32.5484H79.9188L80.237 31.3809H82.413L82.7502 32.5484H84.255L82.1744 26.5516ZM80.5837 30.2547L81.1818 28.1995L81.3505 27.5632H81.3727L81.535 28.1995L82.1108 30.2547H80.5837Z" fill="white"/>
<path d="M84.1214 26.5516L84.0895 27.7669H85.6961V32.5484H87.0577V27.7669H88.6739L88.6421 26.5516H84.1214Z" fill="white"/>
<path d="M89.7078 32.5484H91.0853V30.7414V26.5516H89.7078V32.5484Z" fill="white"/>
<path d="M22.3268 7.12305L34.2855 16.6957L31.0978 24.5791H22.3268V7.12305Z" fill="white"/>
<path d="M20.7297 1.45709L0 7.03719V16.3999L20.7297 7.47303V1.45709Z" fill="white"/>
<path d="M20.7297 9.21002L0 18.1369V28.4954L20.7297 15.8336V9.21002Z" fill="white"/>
<path d="M15.1146 32.5517H28.7054V26.173H21.7318L15.1146 32.5517Z" fill="white"/>
<path d="M20.7297 17.701L0 30.366V32.5516H12.8145L20.7297 24.9227V17.701Z" fill="white"/>
<path d="M116.635 2.82819H119.963C122.209 2.82819 124.073 3.81759 124.073 6.25451V6.32131C124.073 8.81232 122.205 9.77945 119.975 9.77945H118.066V14.5515H116.641L116.635 2.82819ZM120.061 8.64689C121.735 8.64689 122.635 7.82928 122.635 6.32131V6.25451C122.635 4.6002 121.652 3.97666 120.061 3.97666H118.06V8.64689H120.061Z" fill="white"/>
<path d="M126.058 5.97777H127.42V7.51755C127.96 6.56314 128.692 5.87915 130.238 5.82825V7.10079C128.52 7.1835 127.42 7.73706 127.42 9.83675V14.5483H126.058V5.97777Z" fill="white"/>
<path d="M132.026 3.2863C132.027 3.10837 132.08 2.93462 132.179 2.78698C132.279 2.63934 132.42 2.52444 132.584 2.45678C132.749 2.38913 132.93 2.37175 133.104 2.40685C133.279 2.44195 133.439 2.52794 133.564 2.65398C133.69 2.78002 133.775 2.94045 133.81 3.11501C133.844 3.28956 133.826 3.47043 133.758 3.63475C133.69 3.79908 133.574 3.9395 133.426 4.03829C133.278 4.13708 133.104 4.18981 132.927 4.18981C132.688 4.18813 132.459 4.0923 132.291 3.92314C132.122 3.75397 132.027 3.52512 132.026 3.2863ZM132.271 5.97773H133.617V14.5483H132.255L132.271 5.97773Z" fill="white"/>
<path d="M135.433 5.97778H136.91L139.455 13.174L141.962 5.97778H143.371L140.298 14.5484H138.548L135.433 5.97778Z" fill="white"/>
<path d="M144.367 12.1719C144.367 10.1899 146.466 9.51865 148.662 9.51865H149.893V8.90783C149.893 7.54621 149.368 6.97357 148.054 6.97357C146.874 6.97357 146.218 7.46349 146.088 8.51334H144.726C144.908 6.56317 146.466 5.841 148.121 5.841C149.775 5.841 151.251 6.51227 151.251 8.90783V14.5484H149.893V13.4667C149.257 14.2716 148.48 14.6979 147.22 14.6979C145.63 14.6979 144.367 13.928 144.367 12.1719ZM149.893 11.5356V10.4985H148.712C146.988 10.4985 145.728 10.9248 145.728 12.1846C145.728 13.069 146.155 13.629 147.351 13.629C148.792 13.6162 149.893 12.8782 149.893 11.5484V11.5356Z" fill="white"/>
<path d="M154.216 12.4073V7.12305H152.988V5.97777H154.216V4.02441H155.568V5.97777H157.569V7.12305H155.568V12.2705C155.568 13.1072 155.947 13.5176 156.634 13.5176C156.992 13.5247 157.349 13.4631 157.684 13.3362V14.4847C157.31 14.6157 156.915 14.6772 156.52 14.666C154.97 14.666 154.216 13.7466 154.216 12.4073Z" fill="white"/>
<path d="M159.103 10.3521V10.2217C159.103 7.63208 160.757 5.82825 163.118 5.82825C165.103 5.82825 166.97 7.02444 166.97 10.0913V10.5335H160.512C160.576 12.4836 161.511 13.5653 163.264 13.5653C164.594 13.5653 165.364 13.0754 165.542 12.0732H166.903C166.611 13.7944 165.182 14.6979 163.248 14.6979C160.824 14.6979 159.103 12.9927 159.103 10.3521ZM165.577 9.4359C165.446 7.66389 164.527 6.96081 163.118 6.96081C161.708 6.96081 160.789 7.91522 160.573 9.4359H165.577Z" fill="white"/>
<path d="M116.291 18.6777H119.816C121.995 18.6777 123.586 19.3999 123.586 21.7127V21.7764C123.623 22.3304 123.467 22.8801 123.144 23.3316C122.82 23.783 122.35 24.1082 121.814 24.2515C123.519 24.6619 124.159 25.524 124.159 27.0574V27.1211C124.159 29.348 122.651 30.401 120.309 30.401H116.291V18.6777ZM119.816 23.7934C121.537 23.7934 122.193 23.1571 122.193 21.7287V21.6618C122.193 20.3352 121.423 19.7944 119.784 19.7944H117.685V23.7934H119.816ZM120.274 29.2844C121.979 29.2844 122.765 28.5304 122.765 27.1051V27.0415C122.765 25.5972 121.964 24.91 120.077 24.91H117.685V29.2844H120.274Z" fill="white"/>
<path d="M125.683 28.0246C125.683 26.0394 127.782 25.3681 129.978 25.3681H131.209V24.7319C131.209 23.3702 130.684 22.7976 129.373 22.7976C128.19 22.7976 127.534 23.2907 127.404 24.3406H126.042C126.224 22.3872 127.782 21.6682 129.437 21.6682C131.091 21.6682 132.567 22.3395 132.567 24.7319V30.401H131.209V29.3194C130.569 30.1211 129.799 30.541 128.527 30.541C126.936 30.541 125.683 29.7775 125.683 28.0246ZM131.209 27.3883V26.3353H130.025C128.304 26.3353 127.044 26.7616 127.044 28.0246C127.044 28.909 127.471 29.4657 128.667 29.4657C130.117 29.4657 131.209 28.7276 131.209 27.401V27.3883Z" fill="white"/>
<path d="M135.239 21.8273H136.598V23.1889C136.992 22.384 137.944 21.6809 139.353 21.6809C141.122 21.6809 142.369 22.6353 142.369 25.139V30.401H141.007V25.0404C141.007 23.5325 140.371 22.858 138.993 22.858C137.721 22.858 136.598 23.6629 136.598 25.2027V30.401H135.239V21.8273Z" fill="white"/>
<path d="M145.038 17.7296H146.4V25.7689L149.956 21.8177H151.547L147.876 25.8103L151.859 30.401H150.201L146.4 25.9471V30.401H145.038V17.7296Z" fill="white"/>
<path d="M153.284 19.139C153.284 18.9602 153.337 18.7854 153.437 18.6367C153.536 18.4881 153.677 18.3723 153.843 18.304C154.008 18.2357 154.19 18.218 154.365 18.2531C154.54 18.2883 154.701 18.3746 154.828 18.5013C154.954 18.628 155.04 18.7893 155.074 18.9647C155.109 19.1402 155.09 19.322 155.021 19.487C154.953 19.652 154.836 19.7929 154.687 19.8918C154.538 19.9907 154.363 20.0432 154.184 20.0425C153.946 20.04 153.718 19.944 153.549 19.775C153.381 19.606 153.286 19.3776 153.284 19.139ZM153.529 21.8273H154.891V30.4169H153.529V21.8273Z" fill="white"/>
<path d="M157.674 21.8273H159.036V23.1889C159.43 22.384 160.382 21.6809 161.791 21.6809C163.56 21.6809 164.807 22.6353 164.807 25.139V30.401H163.445V25.0404C163.445 23.5325 162.809 22.858 161.431 22.858C160.159 22.858 159.036 23.6629 159.036 25.2027V30.401H157.674V21.8273Z" fill="white"/>
<path d="M167.021 30.8909H168.415C168.612 31.8739 169.429 32.383 170.89 32.383C172.579 32.383 173.645 31.5812 173.645 29.7456V28.4985C173.33 28.985 172.901 29.3872 172.395 29.6699C171.89 29.9527 171.323 30.1076 170.743 30.121C168.497 30.121 166.84 28.4158 166.84 26.0552V25.9407C166.84 23.6151 168.481 21.6809 170.842 21.6809C171.404 21.654 171.962 21.7819 172.457 22.0506C172.951 22.3193 173.362 22.7185 173.645 23.2047V21.8272H175.003V29.8283C174.987 32.3193 173.298 33.5314 170.906 33.5314C168.361 33.5314 167.247 32.3352 167.021 30.8909ZM173.702 25.9566V25.8421C173.702 23.9333 172.652 22.8103 170.982 22.8103C169.312 22.8103 168.259 24.0828 168.259 25.8771V26.0075C168.259 27.875 169.458 28.9916 170.899 28.9916C172.477 28.9916 173.702 27.875 173.702 25.9566Z" fill="white"/>
<path d="M106.499 0V33.0861" stroke="white" stroke-width="0.318135" stroke-miterlimit="10"/>
</g>
<defs>
<clipPath id="clip0">
<rect width="175" height="33.5315" fill="white"/>
</clipPath>
</defs>
</svg>
