<?xml version="1.0" encoding="UTF-8" ?>
<!DOCTYPE svg PUBLIC "-//W3C//DTD SVG 1.1//EN" "http://www.w3.org/Graphics/SVG/1.1/DTD/svg11.dtd">
<svg class="lds-spinner" width="34px"  height="34px"  xmlns="http://www.w3.org/2000/svg" xmlns:xlink="http://www.w3.org/1999/xlink" viewBox="0 0 100 100" preserveAspectRatio="xMidYMid" style="background: none;"><g transform="rotate(0 50 50)">
  <rect class="rect1" x="47" y="24" rx="9.4" ry="1" width="6" height="12" fill="#FFFFFF">
     </rect>
</g><g transform="rotate(30 50 50)">
  <rect class="rect2" x="47" y="24" rx="9.4" ry="1" width="6" height="12" fill="#FFFFFF">
   </rect>
</g><g transform="rotate(60 50 50)">
  <rect class="rect3" x="47" y="24" rx="9.4" ry="1" width="6" height="12" fill="#FFFFFF">
  </rect>
</g><g transform="rotate(90 50 50)">
  <rect class="rect4" x="47" y="24" rx="9.4" ry="1" width="6" height="12" fill="#FFFFFF">
     </rect>
</g><g transform="rotate(120 50 50)">
  <rect class="rect5" x="47" y="24" rx="9.4" ry="1" width="6" height="12" fill="#FFFFFF">
     </rect>
</g><g transform="rotate(150 50 50)">
  <rect class="rect6" x="47" y="24" rx="9.4" ry="1" width="6" height="12" fill="#FFFFFF">
     </rect>
</g><g transform="rotate(180 50 50)">
  <rect class="rect7" x="47" y="24" rx="9.4" ry="1" width="6" height="12" fill="#FFFFFF">
  </rect>
</g><g transform="rotate(210 50 50)">
  <rect class="rect8" x="47" y="24" rx="9.4" ry="1" width="6" height="12" fill="#FFFFFF">
     </rect>
</g><g transform="rotate(240 50 50)">
  <rect class="rect9" x="47" y="24" rx="9.4" ry="1" width="6" height="12" fill="#FFFFFF">
    </rect>
</g><g transform="rotate(270 50 50)">
  <rect class="rect10" x="47" y="24" rx="9.4" ry="1" width="6" height="12" fill="#FFFFFF">
   </rect>
</g><g transform="rotate(300 50 50)">
  <rect class="rect11" x="47" y="24" rx="9.4" ry="1" width="6" height="12" fill="#FFFFFF">
     </rect>
</g><g transform="rotate(330 50 50)">
  <rect class="rect12" x="47" y="24" rx="9.4" ry="1" width="6" height="12" fill="#FFFFFF">
    </rect>
</g>

<style>
@keyframes loading-spinner {
 0% {
   		opacity: 1;
	}
100% {
   		opacity: 0;
 	}
 }
 
 .rect1 {
	animation: loading-spinner 1s linear infinite;
 	animation-delay: -0.9166666666666666s;
 }
 .rect2 {
	animation: loading-spinner 1s linear infinite;
	animation-delay: -0.8333333333333334s;
 }
  .rect3 {
	animation: loading-spinner 1s linear infinite;
	animation-delay: -0.75s;
 }
  .rect4 {
	animation: loading-spinner 1s linear infinite;
	animation-delay: -0.6666666666666666s;
 }
  .rect5 {
	animation: loading-spinner 1s linear infinite;
	animation-delay: -0.5833333333333334s;
 }
  .rect6 {
	animation: loading-spinner 1s linear infinite;
	animation-delay: -0.5s;
 }
  .rect7 {
	animation: loading-spinner 1s linear infinite;
	animation-delay: -0.4166666666666667s;
 }
  .rect8 {
	animation: loading-spinner 1s linear infinite;
	animation-delay: -0.3333333333333333s;
 }
  .rect9 {
	animation: loading-spinner 1s linear infinite;
	animation-delay: -0.25s;
 }
  .rect10 {
	animation: loading-spinner 1s linear infinite;
	animation-delay: -0.16666666666666666s;
 }
  .rect11 {
	animation: loading-spinner 1s linear infinite;
	animation-delay: -0.08333333333333333s;
 }
  .rect12 {
	animation: loading-spinner 1s linear infinite;
	animation-delay: 0s;
 }
</style>

</svg>